<svg width="960" height="720" viewBox="0 0 960 720" fill="none" xmlns="http://www.w3.org/2000/svg" role="img" aria-labelledby="title desc">
  <title id="title">AgentPulse AI company workspace preview</title>
  <desc id="desc">A workspace preview for a one-person media company with AI employees, tasks, content plans, and confirmation gates.</desc>
  <rect width="960" height="720" rx="28" fill="#13201D"/>
  <rect x="34" y="34" width="892" height="652" rx="20" fill="#F9FBF8"/>
  <rect x="34" y="34" width="892" height="72" rx="20" fill="#FFFFFF"/>
  <rect x="34" y="82" width="892" height="24" fill="#FFFFFF"/>
  <circle cx="76" cy="70" r="18" fill="#39D0A7"/>
  <rect x="112" y="58" width="128" height="16" rx="8" fill="#13201D"/>
  <rect x="676" y="56" width="94" height="28" rx="8" fill="#E7F3EE"/>
  <rect x="790" y="56" width="94" height="28" rx="8" fill="#13201D"/>
  <rect x="64" y="140" width="212" height="512" rx="16" fill="#ECF4F0"/>
  <rect x="96" y="176" width="110" height="12" rx="6" fill="#13201D"/>
  <rect x="96" y="210" width="142" height="10" rx="5" fill="#91A7A0"/>
  <rect x="96" y="240" width="124" height="10" rx="5" fill="#91A7A0"/>
  <rect x="96" y="300" width="132" height="42" rx="8" fill="#13201D"/>
  <rect x="96" y="362" width="132" height="42" rx="8" fill="#FFFFFF"/>
  <rect x="96" y="424" width="132" height="42" rx="8" fill="#FFFFFF"/>
  <rect x="312" y="140" width="584" height="156" rx="16" fill="#FFFFFF"/>
  <rect x="344" y="172" width="138" height="12" rx="6" fill="#91A7A0"/>
  <rect x="344" y="202" width="116" height="54" rx="8" fill="#39D0A7"/>
  <rect x="500" y="202" width="116" height="54" rx="8" fill="#F3C969"/>
  <rect x="656" y="202" width="116" height="54" rx="8" fill="#13201D"/>
  <rect x="812" y="202" width="42" height="54" rx="8" fill="#E7F3EE"/>
  <rect x="312" y="324" width="276" height="328" rx="16" fill="#FFFFFF"/>
  <rect x="344" y="358" width="126" height="12" rx="6" fill="#13201D"/>
  <rect x="344" y="420" width="34" height="170" rx="17" fill="#39D0A7"/>
  <rect x="402" y="454" width="34" height="136" rx="17" fill="#F3C969"/>
  <rect x="460" y="390" width="34" height="200" rx="17" fill="#39D0A7"/>
  <rect x="518" y="482" width="34" height="108" rx="17" fill="#F3C969"/>
  <rect x="620" y="324" width="276" height="328" rx="16" fill="#FFFFFF"/>
  <rect x="652" y="358" width="152" height="12" rx="6" fill="#13201D"/>
  <rect x="652" y="404" width="198" height="54" rx="10" fill="#ECF4F0"/>
  <rect x="674" y="424" width="112" height="10" rx="5" fill="#13201D"/>
  <rect x="652" y="478" width="198" height="54" rx="10" fill="#ECF4F0"/>
  <rect x="674" y="498" width="136" height="10" rx="5" fill="#13201D"/>
  <rect x="652" y="552" width="198" height="54" rx="10" fill="#13201D"/>
  <rect x="674" y="572" width="116" height="10" rx="5" fill="#FFFFFF"/>
</svg>
